<svg width="200" height="200" viewBox="0 0 200 200" xmlns="http://www.w3.org/2000/svg">
  <defs>
    <!-- Sky gradient -->
    <linearGradient id="fogSky" x1="0" y1="0" x2="0" y2="1">
      <stop offset="0%" stop-color="#D8DEE9" />
      <stop offset="100%" stop-color="#AABACD" />
    </linearGradient>

    <!-- Vertical fog gradient -->
    <linearGradient id="verticalFog" x1="0" y1="0" x2="0" y2="1">
      <stop offset="0%" stop-color="white" stop-opacity="0.05" />
      <stop offset="25%" stop-color="white" stop-opacity="0.15" />
      <stop offset="50%" stop-color="white" stop-opacity="0.3" />
      <stop offset="75%" stop-color="white" stop-opacity="0.5" />
      <stop offset="100%" stop-color="white" stop-opacity="0.7" />
    </linearGradient>
  </defs>

  <!-- Background -->
  <rect width="200" height="200" fill="url(#fogSky)" />
  <rect width="200" height="200" fill="url(#verticalFog)" />

  <!-- X-shaped rime frost -->
  <g stroke="#E0F7FA" stroke-width="1.2" stroke-linecap="round">
    <!-- 10 X shapes -->
    <line x1="30" y1="160" x2="40" y2="170" />
    <line x1="40" y1="160" x2="30" y2="170" />
    
    <line x1="50" y1="150" x2="60" y2="160" />
    <line x1="60" y1="150" x2="50" y2="160" />

    <line x1="70" y1="165" x2="80" y2="175" />
    <line x1="80" y1="165" x2="70" y2="175" />

    <line x1="90" y1="155" x2="100" y2="165" />
    <line x1="100" y1="155" x2="90" y2="165" />

    <line x1="110" y1="160" x2="120" y2="170" />
    <line x1="120" y1="160" x2="110" y2="170" />

    <line x1="130" y1="150" x2="140" y2="160" />
    <line x1="140" y1="150" x2="130" y2="160" />

    <line x1="150" y1="165" x2="160" y2="175" />
    <line x1="160" y1="165" x2="150" y2="175" />

    <line x1="170" y1="155" x2="180" y2="165" />
    <line x1="180" y1="155" x2="170" y2="165" />
  </g>

  <!-- Starburst ice crystals -->
  <g stroke="#B2EBF2" stroke-width="1">
    <!-- 7 crystals -->
    <line x1="40" y1="140" x2="48" y2="148"/>
    <line x1="48" y1="140" x2="40" y2="148"/>
    <line x1="44" y1="138" x2="44" y2="150"/>

    <line x1="70" y1="130" x2="78" y2="138"/>
    <line x1="78" y1="130" x2="70" y2="138"/>
    <line x1="74" y1="128" x2="74" y2="140"/>

    <line x1="100" y1="145" x2="108" y2="153"/>
    <line x1="108" y1="145" x2="100" y2="153"/>
    <line x1="104" y1="143" x2="104" y2="155"/>

    <line x1="130" y1="135" x2="138" y2="143"/>
    <line x1="138" y1="135" x2="130" y2="143"/>
    <line x1="134" y1="133" x2="134" y2="145"/>

    <line x1="160" y1="150" x2="168" y2="158"/>
    <line x1="168" y1="150" x2="160" y2="158"/>
    <line x1="164" y1="148" x2="164" y2="160"/>

    <line x1="90" y1="175" x2="98" y2="183"/>
    <line x1="98" y1="175" x2="90" y2="183"/>
    <line x1="94" y1="173" x2="94" y2="185"/>

    <line x1="120" y1="180" x2="128" y2="188"/>
    <line x1="128" y1="180" x2="120" y2="188"/>
    <line x1="124" y1="178" x2="124" y2="190"/>
  </g>
</svg>
