<svg width="200" height="200" viewBox="0 0 200 200" xmlns="http://www.w3.org/2000/svg">
  <defs>
    <!-- Heavy snow shower sky -->
    <linearGradient id="heavySnowShowerSky" x1="0" y1="0" x2="0" y2="1">
      <stop offset="0%" stop-color="#A7BED1" />
      <stop offset="100%" stop-color="#DCE7EF" />
    </linearGradient>
  </defs>

  <!-- Background -->
  <rect width="200" height="200" fill="url(#heavySnowShowerSky)" />

  <!-- Thick cloud -->
  <g fill="white">
    <ellipse cx="100" cy="70" rx="50" ry="26" />
    <ellipse cx="135" cy="74" rx="45" ry="24" />
    <ellipse cx="65" cy="76" rx="40" ry="22" />
  </g>

  <!-- Heavy snowflakes (12 flakes, 3 rows) -->
  <g stroke="#9FCBEA" stroke-width="1.6" stroke-linecap="round">
    <!-- Row 1 -->
    <g>
      <line x1="40" y1="110" x2="40" y2="120"/>
      <line x1="35" y1="115" x2="45" y2="115"/>
      <line x1="37" y1="112" x2="43" y2="118"/>
      <line x1="43" y1="112" x2="37" y2="118"/>
    </g>
    <g>
      <line x1="80" y1="110" x2="80" y2="120"/>
      <line x1="75" y1="115" x2="85" y2="115"/>
      <line x1="77" y1="112" x2="83" y2="118"/>
      <line x1="83" y1="112" x2="77" y2="118"/>
    </g>
    <g>
      <line x1="120" y1="110" x2="120" y2="120"/>
      <line x1="115" y1="115" x2="125" y2="115"/>
      <line x1="117" y1="112" x2="123" y2="118"/>
      <line x1="123" y1="112" x2="117" y2="118"/>
    </g>
    <g>
      <line x1="160" y1="110" x2="160" y2="120"/>
      <line x1="155" y1="115" x2="165" y2="115"/>
      <line x1="157" y1="112" x2="163" y2="118"/>
      <line x1="163" y1="112" x2="157" y2="118"/>
    </g>

    <!-- Row 2 -->
    <g>
      <line x1="60" y1="135" x2="60" y2="145"/>
      <line x1="55" y1="140" x2="65" y2="140"/>
      <line x1="57" y1="137" x2="63" y2="143"/>
      <line x1="63" y1="137" x2="57" y2="143"/>
    </g>
    <g>
      <line x1="100" y1="135" x2="100" y2="145"/>
      <line x1="95" y1="140" x2="105" y2="140"/>
      <line x1="97" y1="137" x2="103" y2="143"/>
      <line x1="103" y1="137" x2="97" y2="143"/>
    </g>
    <g>
      <line x1="140" y1="135" x2="140" y2="145"/>
      <line x1="135" y1="140" x2="145" y2="140"/>
      <line x1="137" y1="137" x2="143" y2="143"/>
      <line x1="143" y1="137" x2="137" y2="143"/>
    </g>

    <!-- Row 3 -->
    <g>
      <line x1="80" y1="155" x2="80" y2="165"/>
      <line x1="75" y1="160" x2="85" y2="160"/>
      <line x1="77" y1="157" x2="83" y2="163"/>
      <line x1="83" y1="157" x2="77" y2="163"/>
    </g>
    <g>
      <line x1="100" y1="155" x2="100" y2="165"/>
      <line x1="95" y1="160" x2="105" y2="160"/>
      <line x1="97" y1="157" x2="103" y2="163"/>
      <line x1="103" y1="157" x2="97" y2="163"/>
    </g>
    <g>
      <line x1="120" y1="155" x2="120" y2="165"/>
      <line x1="115" y1="160" x2="125" y2="160"/>
      <line x1="117" y1="157" x2="123" y2="163"/>
      <line x1="123" y1="157" x2="117" y2="163"/>
    </g>
    <g>
      <line x1="140" y1="155" x2="140" y2="165"/>
      <line x1="135" y1="160" x2="145" y2="160"/>
      <line x1="137" y1="157" x2="143" y2="163"/>
      <line x1="143" y1="157" x2="137" y2="163"/>
    </g>
  </g>
</svg>
