<svg width="200" height="200" viewBox="0 0 200 200" xmlns="http://www.w3.org/2000/svg">
  <defs>
    <!-- Heavy snow sky gradient -->
    <linearGradient id="heavySnowSky" x1="0" y1="0" x2="0" y2="1">
      <stop offset="0%" stop-color="#A0BED4" />
      <stop offset="100%" stop-color="#D2E1EC" />
    </linearGradient>
  </defs>

  <!-- Background -->
  <rect width="200" height="200" fill="url(#heavySnowSky)" />

  <!-- Thick cloud -->
  <g fill="white">
    <ellipse cx="100" cy="65" rx="50" ry="26"/>
    <ellipse cx="135" cy="70" rx="45" ry="24"/>
    <ellipse cx="65" cy="72" rx="40" ry="22"/>
  </g>

  <!-- 15 Snowflakes -->
  <g stroke="#9FCBEA" stroke-width="1.6" stroke-linecap="round">
    <!-- Row 1 -->
    <g>
      <line x1="30" y1="110" x2="30" y2="120"/>
      <line x1="25" y1="115" x2="35" y2="115"/>
      <line x1="27" y1="112" x2="33" y2="118"/>
      <line x1="33" y1="112" x2="27" y2="118"/>
    </g>
    <g>
      <line x1="60" y1="110" x2="60" y2="120"/>
      <line x1="55" y1="115" x2="65" y2="115"/>
      <line x1="57" y1="112" x2="63" y2="118"/>
      <line x1="63" y1="112" x2="57" y2="118"/>
    </g>
    <g>
      <line x1="90" y1="110" x2="90" y2="120"/>
      <line x1="85" y1="115" x2="95" y2="115"/>
      <line x1="87" y1="112" x2="93" y2="118"/>
      <line x1="93" y1="112" x2="87" y2="118"/>
    </g>
    <g>
      <line x1="120" y1="110" x2="120" y2="120"/>
      <line x1="115" y1="115" x2="125" y2="115"/>
      <line x1="117" y1="112" x2="123" y2="118"/>
      <line x1="123" y1="112" x2="117" y2="118"/>
    </g>
    <g>
      <line x1="150" y1="110" x2="150" y2="120"/>
      <line x1="145" y1="115" x2="155" y2="115"/>
      <line x1="147" y1="112" x2="153" y2="118"/>
      <line x1="153" y1="112" x2="147" y2="118"/>
    </g>

    <!-- Row 2 -->
    <g>
      <line x1="45" y1="135" x2="45" y2="145"/>
      <line x1="40" y1="140" x2="50" y2="140"/>
      <line x1="42" y1="137" x2="48" y2="143"/>
      <line x1="48" y1="137" x2="42" y2="143"/>
    </g>
    <g>
      <line x1="75" y1="135" x2="75" y2="145"/>
      <line x1="70" y1="140" x2="80" y2="140"/>
      <line x1="72" y1="137" x2="78" y2="143"/>
      <line x1="78" y1="137" x2="72" y2="143"/>
    </g>
    <g>
      <line x1="105" y1="135" x2="105" y2="145"/>
      <line x1="100" y1="140" x2="110" y2="140"/>
      <line x1="102" y1="137" x2="108" y2="143"/>
      <line x1="108" y1="137" x2="102" y2="143"/>
    </g>
    <g>
      <line x1="135" y1="135" x2="135" y2="145"/>
      <line x1="130" y1="140" x2="140" y2="140"/>
      <line x1="132" y1="137" x2="138" y2="143"/>
      <line x1="138" y1="137" x2="132" y2="143"/>
    </g>
    <g>
      <line x1="165" y1="135" x2="165" y2="145"/>
      <line x1="160" y1="140" x2="170" y2="140"/>
      <line x1="162" y1="137" x2="168" y2="143"/>
      <line x1="168" y1="137" x2="162" y2="143"/>
    </g>

    <!-- Row 3 -->
    <g>
      <line x1="60" y1="160" x2="60" y2="170"/>
      <line x1="55" y1="165" x2="65" y2="165"/>
      <line x1="57" y1="162" x2="63" y2="168"/>
      <line x1="63" y1="162" x2="57" y2="168"/>
    </g>
    <g>
      <line x1="90" y1="160" x2="90" y2="170"/>
      <line x1="85" y1="165" x2="95" y2="165"/>
      <line x1="87" y1="162" x2="93" y2="168"/>
      <line x1="93" y1="162" x2="87" y2="168"/>
    </g>
    <g>
      <line x1="120" y1="160" x2="120" y2="170"/>
      <line x1="115" y1="165" x2="125" y2="165"/>
      <line x1="117" y1="162" x2="123" y2="168"/>
      <line x1="123" y1="162" x2="117" y2="168"/>
    </g>
    <g>
      <line x1="150" y1="160" x2="150" y2="170"/>
      <line x1="145" y1="165" x2="155" y2="165"/>
      <line x1="147" y1="162" x2="153" y2="168"/>
      <line x1="153" y1="162" x2="147" y2="168"/>
    </g>
    <g>
      <line x1="180" y1="160" x2="180" y2="170"/>
      <line x1="175" y1="165" x2="185" y2="165"/>
      <line x1="177" y1="162" x2="183" y2="168"/>
      <line x1="183" y1="162" x2="177" y2="168"/>
    </g>
  </g>
</svg>
