<svg width="200" height="200" viewBox="0 0 200 200" xmlns="http://www.w3.org/2000/svg">
  <defs>
    <!-- Heavy freezing rain sky -->
    <linearGradient id="heavyFreezingRainSky" x1="0" y1="0" x2="0" y2="1">
      <stop offset="0%" stop-color="#9BB8CC" />
      <stop offset="100%" stop-color="#CFE0EC" />
    </linearGradient>
  </defs>

  <!-- Background -->
  <rect width="200" height="200" fill="url(#heavyFreezingRainSky)" />

  <!-- Heavy cloud -->
  <g fill="white">
    <ellipse cx="100" cy="70" rx="45" ry="24"/>
    <ellipse cx="130" cy="74" rx="42" ry="22"/>
    <ellipse cx="70" cy="77" rx="38" ry="20"/>
  </g>

  <!-- Diagonal, heavy rain drops -->
  <g stroke="#4A9FD3" stroke-width="2" stroke-linecap="round">
    <line x1="60" y1="110" x2="70" y2="140"/>
    <line x1="75" y1="112" x2="85" y2="142"/>
    <line x1="90" y1="115" x2="100" y2="145"/>
    <line x1="105" y1="112" x2="115" y2="142"/>
    <line x1="120" y1="115" x2="130" y2="145"/>
    <line x1="135" y1="112" x2="145" y2="142"/>
    <line x1="150" y1="115" x2="160" y2="145"/>
  </g>

  <!-- Ice sparkles / snowflake indicators -->
  <g stroke="#B2EBF2" stroke-width="1.2">
    <line x1="65" y1="150" x2="69" y2="154"/>
    <line x1="69" y1="150" x2="65" y2="154"/>

    <line x1="85" y1="155" x2="89" y2="159"/>
    <line x1="89" y1="155" x2="85" y2="159"/>

    <line x1="105" y1="152" x2="109" y2="156"/>
    <line x1="109" y1="152" x2="105" y2="156"/>

    <line x1="125" y1="158" x2="129" y2="162"/>
    <line x1="129" y1="158" x2="125" y2="162"/>

    <line x1="145" y1="150" x2="149" y2="154"/>
    <line x1="149" y1="150" x2="145" y2="154"/>
  </g>
</svg>
