<svg width="200" height="200" viewBox="0 0 200 200" xmlns="http://www.w3.org/2000/svg">
  <defs>
    <!-- Sky gradient -->
    <linearGradient id="lightFreezingRainSky" x1="0" y1="0" x2="0" y2="1">
      <stop offset="0%" stop-color="#C9DCEC" />
      <stop offset="100%" stop-color="#EAF2F9" />
    </linearGradient>
  </defs>

  <!-- Background -->
  <rect width="200" height="200" fill="url(#lightFreezingRainSky)" />

  <!-- Cloud -->
  <g fill="white">
    <ellipse cx="100" cy="80" rx="40" ry="20"/>
    <ellipse cx="130" cy="80" rx="35" ry="18"/>
    <ellipse cx="70" cy="85" rx="30" ry="15"/>
  </g>

  <!-- Diagonal, longer rain drops -->
  <g stroke="#5CAFE1" stroke-width="2" stroke-linecap="round">
    <line x1="85" y1="115" x2="95" y2="135"/>
    <line x1="100" y1="118" x2="110" y2="138"/>
    <line x1="115" y1="115" x2="125" y2="135"/>
    <line x1="90" y1="125" x2="100" y2="145"/>
  </g>

  <!-- Freezing sparkles / snowflake symbols -->
  <g stroke="#B2EBF2" stroke-width="1">
    <!-- Sparkle 1 -->
    <line x1="70" y1="140" x2="74" y2="144"/>
    <line x1="74" y1="140" x2="70" y2="144"/>
    <!-- Sparkle 2 -->
    <line x1="95" y1="148" x2="99" y2="152"/>
    <line x1="99" y1="148" x2="95" y2="152"/>
    <!-- Sparkle 3 -->
    <line x1="115" y1="143" x2="119" y2="147"/>
    <line x1="119" y1="143" x2="115" y2="147"/>
    <!-- Sparkle 4 -->
    <line x1="130" y1="135" x2="134" y2="139"/>
    <line x1="134" y1="135" x2="130" y2="139"/>
    <!-- Sparkle 5 -->
    <line x1="150" y1="140" x2="154" y2="144"/>
    <line x1="154" y1="140" x2="150" y2="144"/>
  </g>
</svg>
