<svg width="200" height="200" viewBox="0 0 200 200" xmlns="http://www.w3.org/2000/svg">
  <!-- Background gradient -->
  <defs>
    <linearGradient id="skyGradient" x1="0" y1="0" x2="0" y2="1">
      <stop offset="0%" stop-color="#87CEEB" />
      <stop offset="100%" stop-color="#B0E0E6" />
    </linearGradient>
  </defs>
  <rect width="200" height="200" fill="url(#skyGradient)" />

  <!-- Sun -->
  <circle cx="140" cy="50" r="25" fill="#FFD700" />
  <!-- Sun rays -->
  <g stroke="#FFD700" stroke-width="2">
    <line x1="140" y1="25" x2="140" y2="10"/>
    <line x1="140" y1="75" x2="140" y2="90"/>
    <line x1="115" y1="50" x2="100" y2="50"/>
    <line x1="165" y1="50" x2="180" y2="50"/>
    <line x1="125" y1="35" x2="115" y2="25"/>
    <line x1="155" y1="35" x2="165" y2="25"/>
    <line x1="125" y1="65" x2="115" y2="75"/>
    <line x1="155" y1="65" x2="165" y2="75"/>
  </g>

  <!-- Foreground cloud over sun -->
  <g fill="white" opacity="0.95">
    <ellipse cx="120" cy="60" rx="22" ry="13"/>
    <ellipse cx="140" cy="60" rx="26" ry="15"/>
    <ellipse cx="160" cy="60" rx="20" ry="12"/>
  </g>

  <!-- Midground cloud -->
  <g fill="white" opacity="0.85">
    <ellipse cx="100" cy="100" rx="24" ry="14"/>
    <ellipse cx="125" cy="100" rx="28" ry="16"/>
    <ellipse cx="150" cy="100" rx="20" ry="12"/>
  </g>

  <!-- Distant horizon cloud -->
  <g fill="white" opacity="0.75">
    <ellipse cx="60" cy="155" rx="20" ry="12"/>
    <ellipse cx="80" cy="155" rx="25" ry="15"/>
    <ellipse cx="100" cy="155" rx="18" ry="10"/>
  </g>

  <!-- Extra background cloud -->
  <g fill="white" opacity="0.6">
    <ellipse cx="40" cy="120" rx="18" ry="10"/>
    <ellipse cx="60" cy="120" rx="22" ry="13"/>
    <ellipse cx="80" cy="120" rx="16" ry="9"/>
  </g>
</svg>
