<svg width="200" height="200" viewBox="0 0 200 200" xmlns="http://www.w3.org/2000/svg">
  <defs>
    <!-- Light snow sky gradient -->
    <linearGradient id="lightSnowSky" x1="0" y1="0" x2="0" y2="1">
      <stop offset="0%" stop-color="#D9EAF5" />
      <stop offset="100%" stop-color="#F0F6FB" />
    </linearGradient>
  </defs>

  <!-- Background -->
  <rect width="200" height="200" fill="url(#lightSnowSky)" />

  <!-- Cloud -->
  <g fill="white">
    <ellipse cx="100" cy="80" rx="40" ry="20"/>
    <ellipse cx="130" cy="80" rx="35" ry="18"/>
    <ellipse cx="70" cy="85" rx="30" ry="15"/>
  </g>

  <!-- 6 Larger, spaced snowflakes -->
  <g stroke="#9FCBEA" stroke-width="1.5" stroke-linecap="round">
    <!-- Flake 1 -->
    <line x1="50" y1="120" x2="50" y2="130"/>
    <line x1="45" y1="125" x2="55" y2="125"/>
    <line x1="47" y1="122" x2="53" y2="128"/>
    <line x1="53" y1="122" x2="47" y2="128"/>

    <!-- Flake 2 -->
    <line x1="80" y1="110" x2="80" y2="120"/>
    <line x1="75" y1="115" x2="85" y2="115"/>
    <line x1="77" y1="112" x2="83" y2="118"/>
    <line x1="83" y1="112" x2="77" y2="118"/>

    <!-- Flake 3 -->
    <line x1="110" y1="115" x2="110" y2="125"/>
    <line x1="105" y1="120" x2="115" y2="120"/>
    <line x1="107" y1="117" x2="113" y2="123"/>
    <line x1="113" y1="117" x2="107" y2="123"/>

    <!-- Flake 4 -->
    <line x1="140" y1="110" x2="140" y2="120"/>
    <line x1="135" y1="115" x2="145" y2="115"/>
    <line x1="137" y1="112" x2="143" y2="118"/>
    <line x1="143" y1="112" x2="137" y2="118"/>

    <!-- Flake 5 -->
    <line x1="95" y1="135" x2="95" y2="145"/>
    <line x1="90" y1="140" x2="100" y2="140"/>
    <line x1="92" y1="137" x2="98" y2="143"/>
    <line x1="98" y1="137" x2="92" y2="143"/>

    <!-- Flake 6 -->
    <line x1="125" y1="138" x2="125" y2="148"/>
    <line x1="120" y1="143" x2="130" y2="143"/>
    <line x1="122" y1="140" x2="128" y2="146"/>
    <line x1="128" y1="140" x2="122" y2="146"/>
  </g>
</svg>
